<?xml version="1.0" encoding="UTF-8" standalone="no"?>
<!-- Created with Inkscape (http://www.inkscape.org/) -->

<svg
   version="1.1"
   width="101.7077"
   height="128"
   id="svg2"
   sodipodi:docname="Scissors_icon_black.svg"
   inkscape:version="1.4 (86a8ad7, 2024-10-11)"
   xmlns:inkscape="http://www.inkscape.org/namespaces/inkscape"
   xmlns:sodipodi="http://sodipodi.sourceforge.net/DTD/sodipodi-0.dtd"
   xmlns="http://www.w3.org/2000/svg"
   xmlns:svg="http://www.w3.org/2000/svg">
  <sodipodi:namedview
     id="namedview1"
     pagecolor="#ffffff"
     bordercolor="#999999"
     borderopacity="1"
     inkscape:showpageshadow="2"
     inkscape:pageopacity="0"
     inkscape:pagecheckerboard="true"
     inkscape:deskcolor="#d1d1d1"
     inkscape:zoom="10.125"
     inkscape:cx="-6.6666667"
     inkscape:cy="51.802469"
     inkscape:window-width="3440"
     inkscape:window-height="1411"
     inkscape:window-x="-9"
     inkscape:window-y="-9"
     inkscape:window-maximized="1"
     inkscape:current-layer="g4593" />
  <defs
     id="defs4">
    <marker
       refX="0"
       refY="0"
       orient="auto"
       id="Scissors"
       style="overflow:visible">
      <path
         d="M 9.0898857,-3.6061018 C 8.1198849,-4.7769976 6.3697607,-4.7358294 5.0623558,-4.2327734 l -8.2124046,3.0779029 c -2.3882933,-1.3067135 -4.7482873,-0.9325372 -4.7482873,-1.5687873 0,-0.4973164 0.4566662,-0.3883222 0.3883068,-1.6831941 -0.065635,-1.2432767 -1.3635771,-2.1630796 -2.5903987,-2.0816435 -1.227271,-0.00735 -2.499439,0.9331613 -2.510341,2.2300611 -0.09143,1.3063864 1.007209,2.5196896 2.306764,2.6052316 1.5223406,0.2266616 4.218258,-0.6955566 5.482945,1.57086006 -0.9422847,1.73825774 -2.6140244,1.74307674 -4.1255107,1.65607034 -1.2548743,-0.072235 -2.7620933,0.2873979 -3.3606483,1.5208605 -0.578367,1.1820862 -0.0112,2.8646022 1.316749,3.226412 1.3401912,0.4918277 3.1806689,-0.129711 3.4993722,-1.6707242 0.2456585,-1.187823 -0.5953659,-1.7459574 -0.2725074,-2.1771537 0.2436135,-0.32536 1.7907806,-0.1368452 4.5471053,-1.3748244 L 5.6763468,4.2330688 C 6.8000164,4.5467672 8.1730685,4.5362646 9.1684433,3.4313614 l -9.22008423,-3.48508362 z m -18.3078016,-1.900504 c 1.294559,0.7227998 1.1888392,2.6835702 -0.1564272,3.0632889 -1.2165179,0.423661 -2.7710269,-0.7589694 -2.3831779,-2.0774648 0.227148,-1.0818519 1.653387,-1.480632 2.5396051,-0.9858241 z m 0.056264,8.0173649 c 1.3508301,0.4988648 1.1214429,2.7844356 -0.2522207,3.091609 -0.9110594,0.3163391 -2.2135494,-0.1387976 -2.3056964,-1.2121394 -0.177609,-1.305055 1.356085,-2.4841482 2.5579171,-1.8794696 z"
         id="schere"
         style="marker-start:none" />
    </marker>
  </defs>
  <g
     transform="translate(-0.49421738,-980.22546)"
     id="layer1">
    <g
       transform="matrix(-3.0464689,3.2251211,-3.2251211,-3.0464689,3283.1821,3784.8219)"
       id="g4593">
      <path
         id="path4599"
         style="marker-start:none"
         d="m 37.302997,960.09617 c 0.113135,0.11872 0.243203,0.22461 0.390307,0.31383 1.15277,0.8421 3.093184,0.75161 3.8242,-0.64191 0.563472,-1.07414 -0.09119,-1.84262 0.337996,-2.16816 0.32384,-0.24563 1.75917,0.36217 4.749921,-0.0684 l 7.684771,5.46392 c 0.993719,0.61119 2.316478,0.97943 3.577789,0.1916 l -7.902752,-5.89086 3.968252,-0.36375 -1.824729,-1.93173 -4.81869,0.38343 c -1.935736,-1.91425 -4.307423,-2.20489 -4.132093,-2.8165 0.137044,-0.47806 0.546076,-0.24791 0.837188,-1.51148 0.279511,-1.21323 -0.714643,-2.45498 -1.916405,-2.71477 -1.177727,-0.34526 -2.660062,0.2085 -3.027925,1.45218 -0.447882,1.23061 0.274091,2.69949 1.499757,3.13983 1.400938,0.6374 4.36878,1.72563 4.837561,3.02097 -0.941576,0.77825 -2.832181,0.8339 -4.26117,0.33375 -1.186382,-0.41524 -2.895238,-0.36365 -3.81052,0.65711 -0.771502,0.85482 -0.8054,2.31992 -0.01346,3.15091 z m 0.589755,-0.55466 c -0.294558,-0.3134 -0.458839,-0.72609 -0.36819,-1.18861 0.188897,-1.30347 1.988164,-2.01417 2.976834,-1.10172 1.161058,0.85179 0.310637,2.98538 -1.094487,2.90212 -0.541664,0.0298 -1.135439,-0.20885 -1.514157,-0.61179 z m 2.298373,-7.78616 c -0.473135,-0.54546 -0.66167,-1.32617 -0.247577,-1.97899 0.516476,-0.97737 1.997161,-0.96772 2.712714,-0.24785 1.045256,1.05155 0.403315,2.90725 -0.994503,2.90155 -0.562696,0.0315 -1.10264,-0.25045 -1.470634,-0.67471 z"
         sodipodi:nodetypes="scsccccccccssccccsccscccscccccc" />
    </g>
  </g>
</svg>
